<svg xmlns="http://www.w3.org/2000/svg" width="1050" height="300" viewBox="0 0 1050 300"><defs></defs><rect width="1050" height="300" fill="#ecedef"></rect><path d="M72.96000000000001 210.0V100.24H115.36Q140.8 100.24 155.04000000000002 113.44Q169.28 126.64 169.28 155.12Q169.28 183.44 155.04000000000002 196.72Q140.8 210.0 115.36 210.0ZM90.88 194.64H115.2Q132.16 194.64 141.44 185.51999999999998Q150.72 176.4 150.72 156.88V153.51999999999998Q150.72 133.84 141.44 124.72Q132.16 115.6 115.2 115.6H90.88Z M187.52 210.0V100.24H272.64V115.6H205.44V146.16H265.6V161.51999999999998H205.44V194.64H273.6V210.0Z M322.24 211.92Q304.8 211.92 295.20000000000005 203.83999999999997Q285.6 195.76 285.6 179.92V174.64H303.36V180.4Q303.36 196.72 322.24 196.72Q331.36 196.72 336.15999999999997 190.72Q340.96 184.72 340.96 173.2V100.24H358.88V172.88Q358.88 192.56 349.28 202.24Q339.68 211.92 322.24 211.92Z M369.91999999999996 210.0 412.96 100.24H435.84L479.03999999999996 210.0H459.84L450.08 184.56H398.08L388.32 210.0ZM403.84 169.36H444.15999999999997L431.84 137.2Q431.2 135.28 429.84 131.52Q428.47999999999996 127.76 427.03999999999996 123.44Q425.59999999999997 119.12 424.47999999999996 115.76H423.52Q422.4 118.96 421.03999999999996 123.03999999999999Q419.67999999999995 127.12 418.31999999999994 130.96Q416.96 134.8 416.0 137.2Z" fill="#151619"/><line x1="219.5" y1="86.8" x2="246.8" y2="51.6" stroke="#151619" stroke-width="12.0" stroke-linecap="round"></line><line x1="426.7" y1="86.8" x2="421.8" y2="42.0" stroke="#c2853e" stroke-width="12.0" stroke-linecap="round"></line><path d="M539.0600000000001 210.0V100.24H567.0600000000001L588.34 166.8Q589.78 171.28 591.22 176.95999999999998Q592.6600000000001 182.64 593.46 186.32H594.74Q595.38 182.8 596.6600000000001 177.2Q597.94 171.6 599.38 166.64L620.82 100.24H648.34V210.0H630.58V149.84Q630.58 143.76 630.74 137.2Q630.9 130.64 631.06 125.6Q631.22 120.56 631.22 118.96H629.94Q629.46 120.72 628.34 125.04Q627.22 129.36 625.94 134.08Q624.6600000000001 138.8 623.54 142.32L601.3000000000001 210.0H585.46L563.22 142.48000000000002Q561.78 138.0 560.02 131.12Q558.26 124.24 556.98 118.96H555.7Q555.86 122.96 556.02 128.48Q556.1800000000001 134.0 556.26 139.68Q556.34 145.36 556.34 149.84V210.0Z M721.7800000000001 211.92Q696.1800000000001 211.92 681.46 197.92Q666.74 183.92 666.74 155.12Q666.74 126.32 681.46 112.32Q696.1800000000001 98.32 721.7800000000001 98.32Q747.5400000000001 98.32 762.26 112.32Q776.98 126.32 776.98 155.12Q776.98 183.92 762.26 197.92Q747.5400000000001 211.92 721.7800000000001 211.92ZM721.7800000000001 196.72Q739.22 196.72 748.9000000000001 186.95999999999998Q758.58 177.2 758.58 157.04V153.51999999999998Q758.58 133.2 748.9000000000001 123.35999999999999Q739.22 113.52 721.7800000000001 113.52Q704.5 113.52 694.9000000000001 123.35999999999999Q685.3000000000001 133.2 685.3000000000001 153.51999999999998V157.04Q685.3000000000001 177.2 694.9000000000001 186.95999999999998Q704.5 196.72 721.7800000000001 196.72Z M795.2200000000001 210.0V100.24H852.9800000000001Q870.5800000000002 100.24 879.1400000000001 109.36Q887.7 118.48 887.7 133.36Q887.7 144.24 882.74 152.48000000000002Q877.7800000000001 160.72 868.6600000000001 164.56L891.5400000000001 210.0H872.0200000000001L851.2200000000001 167.6H813.1400000000001V210.0ZM813.1400000000001 152.56H851.5400000000001Q860.0200000000001 152.56 864.8200000000002 147.44Q869.6200000000001 142.32 869.6200000000001 133.2Q869.6200000000001 124.88 865.0600000000002 120.24Q860.5000000000001 115.6 851.5400000000001 115.6H813.1400000000001Z M935.2200000000001 210.0V115.6H898.9000000000001V100.24H989.7800000000001V115.6H953.1400000000001V210.0Z" fill="#151619"/></svg>